<svg xmlns="http://www.w3.org/2000/svg" xmlns:xlink="http://www.w3.org/1999/xlink" width="512" height="3649" viewBox="0 0 512 3649"><svg width="512" height="512" viewBox="0 0 512 512" id="arrow" y="0"><path d="M339 206l-133-133c-5-5-12-8-18-8s-12 3-17 8c-10 10-10 24 0 34l116 116-116 116c-10 10-10 24 0 34s25 10 35 0l133-133c5-5 7-11 7-17 0-7-2-12-7-17z"/></svg><svg width="112" height="112" viewBox="0 0 112 112" id="data" y="512"><path d="M69.697 72.334c.182.766.303 1.539.303 2.332v4.668c0 10.309-15.671 18.666-35 18.666s-35-8.357-35-18.666v-4.668c0-.793.121-1.566.303-2.332 2.156 9.207 16.851 16.332 34.697 16.332s32.541-7.125 34.697-16.332zm-34.697 30.332c-17.846 0-32.541-7.125-34.697-16.332-.182.766-.303 1.539-.303 2.332v4.668c0 10.309 15.671 18.666 35 18.666s35-8.357 35-18.666v-4.668c0-.793-.121-1.566-.303-2.332-2.156 9.207-16.851 16.332-34.697 16.332zm0-55.999c-19.329 0-35 8.358-35 18.667 0 10.309 15.671 18.666 35 18.666s35-8.357 35-18.666c0-10.31-15.671-18.667-35-18.667zm42 37.333c-.789 0-1.559-.033-2.334-.057v9.328c.775.023 1.545.062 2.334.062 19.329 0 35-8.357 35-18.668v-4.666c0-.793-.121-1.568-.303-2.334-2.156 9.209-16.851 16.335-34.697 16.335zm0-46.667c19.33 0 35-8.357 35-18.667 0-10.309-15.67-18.666-35-18.666s-35 8.357-35 18.667c0 10.309 15.67 18.666 35 18.666zm0 4.667c-17.846 0-32.541-7.126-34.697-16.333-.182.765-.303 1.54-.303 2.333v4.667c0 3.962 2.333 7.63 6.281 10.654 6.822 1.386 12.754 3.798 17.248 6.967 3.598.667 7.447 1.045 11.471 1.045 19.329 0 35-8.358 35-18.667v-4.667c0-.793-.121-1.568-.303-2.333-2.156 9.208-16.851 16.334-34.697 16.334zm0 14c-1.965 0-3.878-.098-5.754-.266 2.17 2.898 3.402 6.114 3.416 9.54.773.022 1.549.062 2.338.062 19.329 0 35-8.358 35-18.667v-4.667c0-.793-.121-1.568-.303-2.333-2.156 9.205-16.851 16.331-34.697 16.331zm0 14c-.789 0-1.559-.033-2.334-.057v9.328c.775.023 1.545.062 2.334.062 19.329 0 35-8.357 35-18.668v-4.666c0-.793-.121-1.568-.303-2.333-2.156 9.208-16.851 16.334-34.697 16.334z"/></svg><svg width="100" height="100" viewBox="0 0 100 100" id="facebook" y="624"><path d="M95 20.001c0-7.882-7.116-15.001-15-15.001h-60c-7.884 0-15 7.119-15 15.001v59.998c0 7.882 7.116 15.001 15.001 15.001h29.999v-34h-11v-15h11v-5.844c0-10.079 7.569-19.156 16.875-19.156h12.125v15h-12.125c-1.327 0-2.875 1.611-2.875 4.024v5.976h15v15h-15v34h16c7.884 0 15-7.119 15-15.001v-59.998z"/></svg><svg width="512" height="512" viewBox="0 0 512 512" id="filter" y="724"><path d="M0 64l192 192v192l128-32v-160l192-192h-512z"/></svg><svg width="512" height="512" viewBox="0 0 512 512" id="graph" y="1236"><path d="M512 480v32h-512v-512h32v480h480zm-283.094-302.281l130.719 32.656 45.25-75.375 41 24.625 2.125-127.625-111.594 61.938 41 24.625-33.031 55.063-125.281-31.344-134.406 134.406 22.625 22.625 121.593-121.594zm-36.906 270.281h64v-230.531l-17.281-4.313-46.719 46.719v188.125zm-96-114.75v114.75h64v-156.125l-52.688 52.688-11.312-11.313zm288-101.25v216h64v-249.781l-32.156-19.281-31.844 53.062zm-32 216v-206.531l-64-16v222.531h64z"/></svg><svg width="512" height="512" viewBox="0 0 512 512" id="home" y="1748"><path d="M512 304l-96-96v-144h-64v80l-96-96-256 256v16h64v160h160v-96h64v96h160v-160h64v-16z"/></svg><svg width="112" height="112" viewBox="0 0 112 112" id="info" y="2260"><path d="M60.361 28.418c-.563-.434-1.214-.742-1.97-.915-.741-.172-1.544-.261-2.389-.261-.851 0-1.652.089-2.414.261-.76.173-1.422.481-1.987.915-.56.435-1.003 1.012-1.33 1.723-.327.714-.485 1.604-.485 2.679 0 1.05.164 1.932.485 2.655.327.724.767 1.312 1.33 1.745.565.435 1.228.751 1.987.934.761.187 1.563.28 2.414.28.845 0 1.646-.095 2.389-.28.756-.183 1.404-.504 1.97-.934.56-.434 1.013-1.018 1.349-1.745.336-.72.504-1.605.504-2.655 0-1.073-.168-1.969-.504-2.679-.336-.711-.789-1.289-1.349-1.723zM50.271 42.912h11.419v41.846h-11.419zM56 0c-30.926 0-56 25.074-56 56s25.074 56 56 56 56-25.074 56-56-25.074-56-56-56zm0 102.666c-25.773 0-46.667-20.893-46.667-46.666 0-25.774 20.894-46.667 46.667-46.667s46.666 20.893 46.666 46.667c0 25.773-20.893 46.666-46.666 46.666z"/></svg><svg width="26" height="26" viewBox="0 0 26 26" id="instagram" y="2372"><path fill="none" d="M0 0h26v26h-26z"/><path d="M20 7c-.551 0-1-.449-1-1v-2c0-.551.449-1 1-1h2c.551 0 1 .449 1 1v2c0 .551-.449 1-1 1h-2zM13 9.188c-.726 0-1.396.213-1.973.563.18-.056.367-.093.564-.093 1.068 0 1.933.865 1.933 1.934 0 1.066-.865 1.933-1.933 1.933s-1.933-.866-1.933-1.933c0-.199.039-.386.094-.565-.352.577-.564 1.247-.564 1.973 0 2.107 1.705 3.813 3.813 3.813 2.105 0 3.813-1.705 3.813-3.813s-1.709-3.812-3.814-3.812zM13 7c3.313 0 6 2.686 6 6s-2.688 6-6 6c-3.313 0-6-2.686-6-6s2.687-6 6-6m0-2c-4.411 0-8 3.589-8 8s3.589 8 8 8 8-3.589 8-8-3.589-8-8-8zM21.125 0h-16.25c-2.693 0-4.875 2.182-4.875 4.875v16.25c0 2.693 2.182 4.875 4.875 4.875h16.25c2.693 0 4.875-2.182 4.875-4.875v-16.25c0-2.693-2.182-4.875-4.875-4.875zm2.875 9h-6.537c.953 1.063 1.537 2.461 1.537 4 0 3.314-2.688 6-6 6-3.313 0-6-2.686-6-6 0-1.539.584-2.938 1.537-4h-6.537v-4.125c0-1.585 1.29-2.875 2.875-2.875h16.25c1.586 0 2.875 1.29 2.875 2.875v4.125z"/></svg><svg width="100" height="100" viewBox="0 0 100 100" id="location" y="2398"><path d="M79.535 27.4c-.32-1.201-.971-2.48-1.452-3.6-5.759-13.84-18.342-18.8-28.502-18.8-13.601 0-28.581 9.12-30.581 27.919v3.841c0 .16.055 1.6.134 2.32 1.121 8.959 8.19 18.48 13.47 27.439 5.68 9.599 11.574 19.041 17.414 28.48 3.6-6.159 7.188-12.399 10.706-18.4.96-1.76 2.073-3.52 3.033-5.2.64-1.119 1.862-2.239 2.421-3.28 5.679-10.399 14.822-20.879 14.822-31.199v-4.24c0-1.119-1.386-5.039-1.465-5.28zm-29.705 19.28c-3.998 0-8.374-1.999-10.534-7.52-.322-.879-.296-2.64-.296-2.801v-2.48c0-7.038 5.976-10.239 11.175-10.239 6.4 0 11.351 5.121 11.351 11.521-.001 6.4-5.296 11.519-11.696 11.519z"/></svg><svg width="512" height="512" viewBox="0 0 512 512" id="mail" y="2498"><path d="M512 384c0 11.219-3.156 21.625-8.219 30.781l-161.656-180.875 159.906-139.906c6.219 9.875 9.969 21.469 9.969 34v256zm-256-117.25l222.5-194.687c-9.125-5-19.406-8.063-30.5-8.063h-384c-11.109 0-21.391 3.063-30.484 8.063l222.484 194.687zm62.031-11.781l-51.5 45.094c-3.015 2.625-6.765 3.937-10.531 3.937s-7.516-1.313-10.531-3.938l-51.516-45.094-163.703 183.188c9.813 6.157 21.313 9.844 33.75 9.844h384c12.438 0 23.938-3.688 33.75-9.844l-163.719-183.187zm-308.062-160.969c-6.219 9.875-9.969 21.469-9.969 34v256c0 11.219 3.141 21.625 8.219 30.781l161.641-180.906-159.891-139.875z"/></svg><svg width="512" height="512" viewBox="0 0 512 512" id="menu" y="3010"><path d="M78 100c-20 0-35-15-35-35s15-36 35-36h353c20 0 36 16 36 36s-16 35-36 35h-353zM431 187c20 0 36 16 36 36s-16 35-36 35h-353c-20 0-35-15-35-35s15-36 35-36h353zM431 346c20 0 36 15 36 35s-16 36-36 36h-353c-20 0-35-16-35-36s15-35 35-35h353z"/></svg><svg width="48" height="48" enable-background="new 0 0 16 16" id="search" y="3522"><path d="M46.599 40.236l-10.545-10.545c1.836-2.973 2.946-6.441 2.946-10.191 0-10.77-8.73-19.5-19.5-19.5s-19.5 8.73-19.5 19.5 8.73 19.5 19.5 19.5c3.75 0 7.218-1.11 10.188-2.943l10.548 10.545c1.758 1.758 4.605 1.758 6.363 0s1.758-4.608 0-6.366zm-27.099-7.236c-7.455 0-13.5-6.045-13.5-13.5s6.045-13.5 13.5-13.5 13.5 6.045 13.5 13.5-6.045 13.5-13.5 13.5z"/></svg><svg width="21.59" height="21.137" viewBox="0 0 21.59 21.137" id="settings" y="3570"><path d="M18.622 8.145l-.545-1.295s1.268-2.861 1.156-2.971l-1.679-1.639c-.116-.113-2.978 1.193-2.978 1.193l-1.32-.533s-1.166-2.9-1.326-2.9h-2.369c-.165 0-1.244 2.906-1.244 2.906l-1.318.535s-2.922-1.242-3.034-1.131l-1.676 1.641c-.116.113 1.218 2.916 1.218 2.916l-.545 1.293s-2.962 1.141-2.962 1.295v2.322c0 .162 2.969 1.219 2.969 1.219l.545 1.291s-1.268 2.859-1.157 2.969l1.678 1.643c.114.111 2.977-1.195 2.977-1.195l1.321.535s1.166 2.898 1.327 2.898h2.369c.164 0 1.244-2.906 1.244-2.906l1.322-.535s2.916 1.242 3.029 1.133l1.678-1.641c.117-.115-1.22-2.916-1.22-2.916l.544-1.293s2.963-1.143 2.963-1.299v-2.32c.001-.161-2.967-1.215-2.967-1.215zm-4.366 2.423c0 1.867-1.553 3.387-3.461 3.387-1.906 0-3.461-1.52-3.461-3.387s1.555-3.385 3.461-3.385c1.909.001 3.461 1.518 3.461 3.385z"/></svg><svg width="16" height="16" viewBox="0 0 16 16" id="twitter" y="3592"><path d="M13 0h-10c-1.657 0-3 1.343-3 3v10c0 1.657 1.343 3 3 3h10c1.657 0 3-1.343 3-3v-10c0-1.657-1.343-3-3-3zm-1.02 6.204l.006.255c0 2.604-1.981 5.604-5.604 5.604-1.112 0-2.147-.326-3.019-.885.154.018.311.028.47.028.923 0 1.772-.315 2.446-.843-.862-.016-1.589-.586-1.84-1.368.121.023.243.034.371.034.18 0 .354-.023.519-.068-.901-.182-1.58-.977-1.58-1.931v-.025c.266.148.569.236.892.247-.528-.353-.876-.956-.876-1.639 0-.361.097-.699.266-.99.971 1.192 2.423 1.976 4.06 2.058-.034-.144-.051-.295-.051-.449 0-1.087.882-1.969 1.97-1.969.566 0 1.078.239 1.438.622.448-.089.87-.253 1.251-.478-.147.46-.459.846-.866 1.09.397-.047.778-.154 1.131-.31-.264.394-.599.741-.984 1.017z"/></svg><svg width="40.007" height="40.007" viewBox="0 0 40.007 40.007" id="video" y="3608"><path d="M37.324 10.004c-5.522-9.566-17.755-12.844-27.32-7.32-9.566 5.522-12.844 17.754-7.32 27.32 5.522 9.565 17.754 12.843 27.32 7.32 9.565-5.523 12.844-17.755 7.32-27.32zm-9.32 23.855c-7.652 4.419-17.438 1.797-21.856-5.856-4.419-7.652-1.796-17.438 5.856-21.855 7.652-4.419 17.438-1.797 21.856 5.856 4.418 7.652 1.796 17.437-5.856 21.855zm-.8-14.668l-10.473-6.108c-.954-.557-1.724-.112-1.719.992l.054 12.124c.005 1.104.784 1.553 1.741 1l10.393-6c.956-.552.958-1.451.004-2.008z"/></svg></svg>